<svg id="OBJECTS" xmlns="http://www.w3.org/2000/svg" viewBox="0 0 114.9 159.22"><defs><style>.cls-1{fill:#e84d00;}.cls-2{fill:#203f43;}.cls-3{fill:#ff690f;}.cls-4{fill:#0983b6;}.cls-5{fill:#1591bc;}.cls-6{fill:#f25508;}.cls-7{fill:#e24000;}.cls-8{fill:#a7ca16;}.cls-9{fill:#92a6b5;}.cls-10{fill:#d3e0eb;}</style></defs><path class="cls-1" d="M210.09,194.15s24.3-4,37.55,5.74v5s-29.72-16.3-47.91-4.55C199.73,200.33,200.32,195.55,210.09,194.15Z" transform="translate(-133.82 -80.52)"/><path class="cls-2" d="M239,194.08a1.18,1.18,0,0,0-.37,0l-20.2,5-.24.08-.46.09a10,10,0,0,0-7.35,9.16v3.79a7.41,7.41,0,0,0,8.16,7.06c2.77-.24,4.14-3.6,5.46-5.94a3.89,3.89,0,0,0,.49-1.86h0a4.73,4.73,0,0,1,2.33-3.95c2.35-1.33,4.54-.11,4.54,2.14v.09a2.67,2.67,0,0,0,.48,1.61c1.31,1.71,3.7,2,6.42,1.33a10,10,0,0,0,7.22-9.13l1.78-3.17C247.25,196.64,242.62,193.61,239,194.08Z" transform="translate(-133.82 -80.52)"/><path class="cls-3" d="M240.81,195.42a1.58,1.58,0,0,0-.37,0l-20.2,5-.24.08-.46.09a10,10,0,0,0-7.35,9.16v3.79c0,4,3.21,6.51,7.21,5.57a9.6,9.6,0,0,0,6.4-4.45,3.8,3.8,0,0,0,.5-1.86h0a4.73,4.73,0,0,1,2.33-3.95c2.35-1.33,4.53-.11,4.53,2.14v.09a2.63,2.63,0,0,0,.49,1.61c1.3,1.71,3.7,2,6.42,1.33a10,10,0,0,0,7.22-9.13v-3.79A5.5,5.5,0,0,0,240.81,195.42Z" transform="translate(-133.82 -80.52)"/><path class="cls-4" d="M240.05,212.18a7.46,7.46,0,0,0,5.38-6.82v-3.79a4.09,4.09,0,0,0-4.84-4.25h-.24l-20,4.94a1.86,1.86,0,0,1-.31.1l-.11,0-.11,0-.23.05a7.49,7.49,0,0,0-5.49,6.84v3.8a4.14,4.14,0,0,0,5.37,4.16l.12,0a7.37,7.37,0,0,0,4.71-3.19,1.67,1.67,0,0,0,.19-.78,7.3,7.3,0,0,1,3.62-6,6.71,6.71,0,0,1,1.67-.67c2.92-.72,5.29,1.07,5.29,4v.09a1.14,1.14,0,0,0,.19.68c1.15,1.51,3.46,1.21,4.73.9Z" transform="translate(-133.82 -80.52)"/><path class="cls-5" d="M220.3,202.27a1.86,1.86,0,0,1-.31.1l-.11,0-.11,0-.23.05a7.53,7.53,0,0,0-5.48,6.48l6.81-6.81Z" transform="translate(-133.82 -80.52)"/><path class="cls-5" d="M230.21,199.83l-15.58,15.58a3.92,3.92,0,0,0,1.71,1.59l18.25-18.25Z" transform="translate(-133.82 -80.52)"/><path class="cls-5" d="M242.82,197.56l-9.52,9.52a4,4,0,0,1,1.7,3.18l10.2-10.19A4,4,0,0,0,242.82,197.56Z" transform="translate(-133.82 -80.52)"/><path class="cls-5" d="M245.12,207.19l-4.94,4.94A7.57,7.57,0,0,0,245.12,207.19Z" transform="translate(-133.82 -80.52)"/><path class="cls-2" d="M214.54,193.65s-9.51.68-14.27,2.85c-13.73,6.25-6.42,15.08.95,16.24,6.3,1,8.87,0,8.87,0v-5.4s-8.69,1.46-10.6-2.39S202.15,195.61,214.54,193.65Z" transform="translate(-133.82 -80.52)"/><path class="cls-6" d="M211.14,215.3h0a2.19,2.19,0,0,1-2.18-2.18v-5a2.19,2.19,0,0,1,2.18-2.18h0a2.19,2.19,0,0,1,2.18,2.18v5A2.19,2.19,0,0,1,211.14,215.3Z" transform="translate(-133.82 -80.52)"/><rect class="cls-6" x="112.72" y="118.04" width="2.18" height="8.26" rx="1.03"/><path class="cls-7" d="M185.89,81s18.46,3.07,19.76,22.74-18.93,43.74-21.08,76.35S178.39,245,152.28,239s-15.62-36.79-3.3-67.06,4.66-60.77,14.42-77.89S185.89,81,185.89,81Z" transform="translate(-133.82 -80.52)"/><path class="cls-3" d="M186.21,81.13s15.86,2.4,17.16,22.06-18.93,43.75-21.08,76.36-6.18,64.88-32.28,58.87-15.62-36.79-3.3-67.06,4.65-60.77,14.42-77.89S186.21,81.13,186.21,81.13Z" transform="translate(-133.82 -80.52)"/><path class="cls-8" d="M178.42,158h0a4.81,4.81,0,0,1-6.61-1.52l-9.94-15.89a4.82,4.82,0,0,1,1.52-6.61h0a4.82,4.82,0,0,1,6.61,1.53l9.94,15.88A4.82,4.82,0,0,1,178.42,158Z" transform="translate(-133.82 -80.52)"/><path class="cls-1" d="M178.42,158h0a.63.63,0,0,1-.86-.2L166.51,140.1a.63.63,0,0,1,.2-.86h0a.63.63,0,0,1,.86.2l11.05,17.65A.63.63,0,0,1,178.42,158Z" transform="translate(-133.82 -80.52)"/><path class="cls-9" d="M165.7,153.09h0a.62.62,0,0,1-.75-.45l-2.39-9.32a.64.64,0,0,1,.45-.76h0a.62.62,0,0,1,.75.45l2.38,9.32A.62.62,0,0,1,165.7,153.09Z" transform="translate(-133.82 -80.52)"/><path class="cls-9" d="M179.61,144.38h0a.62.62,0,0,0-.07-.87l-7.35-6.22a.62.62,0,0,0-.87.07h0a.62.62,0,0,0,.07.87l7.35,6.22A.62.62,0,0,0,179.61,144.38Z" transform="translate(-133.82 -80.52)"/><path class="cls-10" d="M178.64,145a1.15,1.15,0,0,0,1.57.36,1.14,1.14,0,0,0-1.21-1.93A1.14,1.14,0,0,0,178.64,145Z" transform="translate(-133.82 -80.52)"/><path class="cls-9" d="M179.83,148.37h0a.4.4,0,0,0-.32.46l1.12,6.12a.41.41,0,0,0,.47.32h0a.41.41,0,0,0,.32-.47l-1.13-6.11A.39.39,0,0,0,179.83,148.37Z" transform="translate(-133.82 -80.52)"/><path class="cls-10" d="M180.56,148.46a.74.74,0,1,0-.82.64A.73.73,0,0,0,180.56,148.46Z" transform="translate(-133.82 -80.52)"/><path class="cls-9" d="M169.19,155h0a.4.4,0,0,1,.56-.09l5,3.69a.4.4,0,0,1,.09.56h0a.41.41,0,0,1-.56.08l-5-3.68A.4.4,0,0,1,169.19,155Z" transform="translate(-133.82 -80.52)"/><path class="cls-10" d="M169,155.73a.74.74,0,0,1,.47-1.4.74.74,0,0,1-.47,1.4Z" transform="translate(-133.82 -80.52)"/><path class="cls-10" d="M164,145.52a.52.52,0,0,0,.26-.46,6.18,6.18,0,0,1,8.77-5.49.55.55,0,0,0,.53,0h0a.55.55,0,0,0,.18-.76l-2.55-4.07a6.33,6.33,0,0,0-8.1-2.43,6.21,6.21,0,0,0-2.5,8.83l2.65,4.24a.55.55,0,0,0,.76.17Z" transform="translate(-133.82 -80.52)"/><path class="cls-10" d="M176.8,156.45a5.84,5.84,0,0,1-4.61.33.38.38,0,0,0-.43.56l.3.47a5.58,5.58,0,0,0,7.1,2,5.33,5.33,0,0,0,2-7.52l-.36-.58a.38.38,0,0,0-.69.16A6.08,6.08,0,0,1,176.8,156.45Z" transform="translate(-133.82 -80.52)"/><path class="cls-1" d="M171.89,144.15a1.79,1.79,0,0,1-3,1.9,1.79,1.79,0,1,1,3-1.9Z" transform="translate(-133.82 -80.52)"/><path class="cls-1" d="M175.35,150.66a1.26,1.26,0,1,1-1.74-.4A1.26,1.26,0,0,1,175.35,150.66Z" transform="translate(-133.82 -80.52)"/><path class="cls-10" d="M166.66,152.48a1.13,1.13,0,0,1-.36,1.57,1.14,1.14,0,1,1,.36-1.57Z" transform="translate(-133.82 -80.52)"/><path class="cls-8" d="M170.87,190.74h0a4.8,4.8,0,0,1-6.6-1.52l-9.94-15.89a4.8,4.8,0,0,1,1.52-6.6h0a4.81,4.81,0,0,1,6.61,1.52l9.94,15.88A4.82,4.82,0,0,1,170.87,190.74Z" transform="translate(-133.82 -80.52)"/><path class="cls-1" d="M170.87,190.74h0a.63.63,0,0,1-.86-.2l-11-17.65a.63.63,0,0,1,.2-.86h0a.63.63,0,0,1,.86.2l11,17.65A.62.62,0,0,1,170.87,190.74Z" transform="translate(-133.82 -80.52)"/><path class="cls-9" d="M158.15,185.88h0a.63.63,0,0,1-.75-.45L155,176.11a.61.61,0,0,1,.44-.75h0a.62.62,0,0,1,.76.44l2.38,9.33A.63.63,0,0,1,158.15,185.88Z" transform="translate(-133.82 -80.52)"/><path class="cls-9" d="M172.06,177.17h0a.62.62,0,0,0-.07-.87l-7.34-6.22a.62.62,0,0,0-.87.07h0a.63.63,0,0,0,.07.88l7.34,6.22A.62.62,0,0,0,172.06,177.17Z" transform="translate(-133.82 -80.52)"/><path class="cls-10" d="M171.1,177.78a1.14,1.14,0,1,0,.36-1.57A1.14,1.14,0,0,0,171.1,177.78Z" transform="translate(-133.82 -80.52)"/><path class="cls-9" d="M172.29,181.16h0a.41.41,0,0,0-.33.47l1.13,6.11a.4.4,0,0,0,.46.32h0a.4.4,0,0,0,.32-.46l-1.12-6.12A.4.4,0,0,0,172.29,181.16Z" transform="translate(-133.82 -80.52)"/><path class="cls-10" d="M173,181.25a.74.74,0,0,0-.64-.82.75.75,0,0,0-.83.64.74.74,0,0,0,1.47.18Z" transform="translate(-133.82 -80.52)"/><path class="cls-9" d="M161.64,187.82h0a.4.4,0,0,1,.56-.08l5,3.68a.39.39,0,0,1,.08.56h0a.4.4,0,0,1-.55.08l-5-3.68A.4.4,0,0,1,161.64,187.82Z" transform="translate(-133.82 -80.52)"/><path class="cls-10" d="M161.41,188.52a.74.74,0,1,1,.47-1.4.74.74,0,0,1-.47,1.4Z" transform="translate(-133.82 -80.52)"/><path class="cls-10" d="M156.45,178.31a.56.56,0,0,0,.26-.46,6.17,6.17,0,0,1,8.76-5.49.53.53,0,0,0,.53,0h0a.55.55,0,0,0,.18-.76l-2.54-4.07a6.33,6.33,0,0,0-8.1-2.43,6.21,6.21,0,0,0-2.5,8.84l2.64,4.23a.55.55,0,0,0,.77.17Z" transform="translate(-133.82 -80.52)"/><path class="cls-10" d="M169.25,189.25a5.9,5.9,0,0,1-4.6.33.37.37,0,0,0-.43.55l.29.47a5.6,5.6,0,0,0,7.11,2.05,5.35,5.35,0,0,0,2-7.53l-.37-.58a.38.38,0,0,0-.69.16A6.09,6.09,0,0,1,169.25,189.25Z" transform="translate(-133.82 -80.52)"/><path class="cls-1" d="M164.35,176.94a1.79,1.79,0,1,1-2.47-.57A1.78,1.78,0,0,1,164.35,176.94Z" transform="translate(-133.82 -80.52)"/><path class="cls-1" d="M167.81,183.45a1.27,1.27,0,1,1-1.75-.4A1.27,1.27,0,0,1,167.81,183.45Z" transform="translate(-133.82 -80.52)"/><path class="cls-10" d="M159.12,185.27a1.14,1.14,0,0,1-.36,1.57,1.14,1.14,0,0,1-1.21-1.93A1.15,1.15,0,0,1,159.12,185.27Z" transform="translate(-133.82 -80.52)"/><path class="cls-6" d="M196,131.89c1.53-3.75,3-7.35,4.16-10.82-6.24-3-12.93-6.2-19.92-9.38-7.83-3.56-15.39-6.85-22.44-9.8a77.57,77.57,0,0,0-2,11.78c6.08,3,12.57,6,19.36,9.1C182.46,126.06,189.45,129.12,196,131.89Z" transform="translate(-133.82 -80.52)"/><path class="cls-6" d="M139.22,191.13c-1.27,3.78-2.38,7.48-3.26,11,6.84,3.37,14.27,6.89,22.09,10.44,6.25,2.84,12.34,5.52,18.13,8a86.42,86.42,0,0,0,2.9-11.59c-5.09-2.44-10.45-4.95-16-7.47C154.72,197.72,146.67,194.23,139.22,191.13Z" transform="translate(-133.82 -80.52)"/><path class="cls-6" d="M134.08,212.55a40.87,40.87,0,0,0-.14,7.46c6,3.09,13,6.47,20.55,9.9,4.34,2,8.55,3.81,12.54,5.51a22.89,22.89,0,0,0,5.16-6c-4.46-2.19-9.3-4.49-14.38-6.8C149.14,218.67,141,215.23,134.08,212.55Z" transform="translate(-133.82 -80.52)"/><path class="cls-6" d="M166.22,86.77a29.64,29.64,0,0,0-4.59,5.87c5.62,2.86,12,5.94,18.88,9,8.09,3.68,15.73,6.92,22.34,9.52a34.4,34.4,0,0,0,.54-7.42c-5.79-3-12.44-6.15-19.57-9.4C177.6,91.56,171.64,89,166.22,86.77Z" transform="translate(-133.82 -80.52)"/></svg>