<svg id="Режим_изоляции" data-name="Режим изоляции" xmlns="http://www.w3.org/2000/svg" viewBox="0 0 156.26 158.92"><defs><style>.cls-1{fill:#f1d291;}.cls-2{fill:#0a84b7;}.cls-3{fill:#214044;}.cls-4{fill:#ff690f;}.cls-5{fill:#b58c43;}.cls-6{fill:#fefff1;}.cls-7{fill:#a8cb17;}.cls-8{fill:#e84d00;}.cls-9{fill:#0d6d8e;}.cls-10{fill:#163133;}</style></defs><path class="cls-1" d="M336.64,306c2.66-1.22,4.09-4.16,4.71-7a10,10,0,0,0-.26-6.09,8.8,8.8,0,0,0-2.87-3.37A11.45,11.45,0,0,0,327,287.87C316.14,292.72,328,310,336.64,306Z" transform="translate(-277.07 -264.03)"/><path class="cls-2" d="M329,294.51l5.5-1.93a3.79,3.79,0,0,1,1.75-.32,3.56,3.56,0,0,1,2.46,1.93c2.63,4.75,3.2,2,3.24,1.87,1.07-4.2-1.27-9.5-4.32-11.43-3.76-2.39-8.66-2.47-13.36.61a9.93,9.93,0,0,0-4,8.06C320.36,299.19,326.53,295.39,329,294.51Z" transform="translate(-277.07 -264.03)"/><path class="cls-3" d="M340.39,287.66c-1.05,1.8-3.27,2.46-5.19,3.26-.72.31-1.54.82-1.52,1.6a2,2,0,0,0,.19.72l1.13,2.82,1.88-.61c1.22-1.13,4.62-3.64,4.7-4.69A3.35,3.35,0,0,0,340.39,287.66Z" transform="translate(-277.07 -264.03)"/><path class="cls-3" d="M324.42,300.58a3.44,3.44,0,0,0,2.57.25,2.08,2.08,0,0,0,1.44-2,10.39,10.39,0,0,0,4.77-.06c1.51-.37,3.08-1.25,3.49-2.76.46-1.67-.67-3.33-1.79-4.65a1,1,0,0,0-.45-.36,1,1,0,0,0-.71.18,46.67,46.67,0,0,1-11.55,4.28,3,3,0,0,0-1.31.51C319.72,297,323.43,300.12,324.42,300.58Z" transform="translate(-277.07 -264.03)"/><path class="cls-4" d="M326.08,301.47a4.48,4.48,0,0,1-1.87-.44h0c-.89-.42-3.84-2.84-4-4.38a1.15,1.15,0,0,1,.39-1,3.36,3.36,0,0,1,1.5-.62,45.71,45.71,0,0,0,11.45-4.24,1.42,1.42,0,0,1,1.08-.21,1.43,1.43,0,0,1,.69.51c1.15,1.37,2.41,3.19,1.89,5.1-.57,2.09-2.89,2.87-3.85,3.11a10.94,10.94,0,0,1-4.45.17,2.64,2.64,0,0,1-1.71,1.88A3.54,3.54,0,0,1,326.08,301.47Zm8.23-10a.92.92,0,0,0-.34.13,46.78,46.78,0,0,1-11.68,4.33,2.75,2.75,0,0,0-1.1.41s-.05,0,0,.17c.14,1,2.66,3.23,3.48,3.62h0a3.09,3.09,0,0,0,2.2.23,1.62,1.62,0,0,0,1.11-1.5l-.06-.67.65.15a10,10,0,0,0,4.55-.06,4,4,0,0,0,3.14-2.41c.4-1.47-.7-3-1.7-4.21,0,0-.15-.18-.2-.19Z" transform="translate(-277.07 -264.03)"/><path class="cls-5" d="M328.78,300a8.74,8.74,0,0,0,.19,1.44,2.39,2.39,0,0,0,.47,1.19,1.52,1.52,0,0,0,1.09.18,1.43,1.43,0,0,0,1.16-.45.29.29,0,0,0-.18-.43,1.18,1.18,0,0,0-.72,0,2.73,2.73,0,0,1-.64.06c-.2,0-.21,0-.31-.2a8.29,8.29,0,0,1-.65-1.87c-.06-.23-.43-.19-.41.05Z" transform="translate(-277.07 -264.03)"/><path class="cls-6" d="M328.3,296.05l1.25.5a4.22,4.22,0,0,0,1.27.42c.11,0,.2-.16.1-.23a3.59,3.59,0,0,0-1.1-.47l-1.41-.48c-.15,0-.26.2-.11.26Z" transform="translate(-277.07 -264.03)"/><path class="cls-6" d="M329.78,295.3c.56.19,1.12.35,1.66.56a6.3,6.3,0,0,0,1.48.55c.16,0,.23-.21.13-.32a3.75,3.75,0,0,0-1.37-.68,10.82,10.82,0,0,0-1.79-.52.21.21,0,0,0-.11.41Z" transform="translate(-277.07 -264.03)"/><path class="cls-6" d="M332.05,294.34a9.06,9.06,0,0,0,1.1.5,1.61,1.61,0,0,0,1,.19.17.17,0,0,0,.08-.28,1.88,1.88,0,0,0-.82-.34,7.79,7.79,0,0,1-1.15-.49c-.28-.15-.52.27-.25.42Z" transform="translate(-277.07 -264.03)"/><path class="cls-6" d="M322.13,293.63c.07-.51,0-1,.06-1.53a4.13,4.13,0,0,0,0-1.36.19.19,0,0,0-.34-.05,3,3,0,0,0-.18,1.41,7,7,0,0,0,.12,1.58c.05.21.33.14.35-.05Z" transform="translate(-277.07 -264.03)"/><path class="cls-6" d="M323.15,289.5a1.52,1.52,0,0,0,.21-1,.2.2,0,0,0-.34-.09,1.53,1.53,0,0,0-.35.94.25.25,0,0,0,.48.13Z" transform="translate(-277.07 -264.03)"/><path class="cls-6" d="M324.09,287.65a.76.76,0,0,0,.26-.57.21.21,0,0,0-.26-.2.7.7,0,0,0-.44.42c-.16.28.23.6.44.35Z" transform="translate(-277.07 -264.03)"/><path class="cls-3" d="M351.23,383.12c-19.46-20-38.88-40.06-59.07-59.34-.58-.54-2.24,1.13-1.67,1.68,21.95,21,40.13,38.8,60.13,58.26a.43.43,0,0,0,.61-.6Z" transform="translate(-277.07 -264.03)"/><path class="cls-7" d="M295.56,326.37a2.23,2.23,0,0,0-1.33.54c-.45.48-2.06,2.91-1.71,3.67a8.75,8.75,0,0,0,1.42,1.5,6.82,6.82,0,0,1,1.12,2c.33.68.83.75,1.6.76,1.62,0,4.44-3,5-3.7,1-1.11,1.75-.73,2.31-2.09.33-.78-.72-2.1-1.33-2.69C300.93,324.67,297.6,326,295.56,326.37Z" transform="translate(-277.07 -264.03)"/><path class="cls-4" d="M341.63,296.87c.5-.59,1.08-1.25,1.85-1.24s1.26,1.28.53,1.52l2.1,1.48a22.85,22.85,0,0,1,7.56-4.53c1.21-.43,3.55-.28,3.5-1.56-.06-1.75,2.32-1.22,2.63-2.61.22-.95-1.24-1.94-1.29-2.9,0-.58.9-2.08.81-2.65a16.33,16.33,0,0,0-1.43-4.64c-.39-.82-1.93-1.8-1.21-2.36a9,9,0,0,1,2.1-.44c2.38-.28,4.24-1.36,6.62-1.65a44.17,44.17,0,0,1,3,10c.21,1.23,1.21,2.47,1.43,3.7.18,1.06-.42,2.13-.24,3.19a13.79,13.79,0,0,1,.3,3.56c-.26,2.89-2.27,5.27-4.13,7.5a2.32,2.32,0,0,0-.14,3.43c2.18,3.51,4.34,4.56,6.92,7.79.95,1.19,2.16,4.69,2.85,6,1.62,3.17,1.49,6.92,1.32,10.48a7.5,7.5,0,0,1-6.51,1.78c-.93-.19-1.83-.57-2.77-.73-2-.33-3.95.31-5.88.82a45.29,45.29,0,0,1-17.5,1c1.06-1.79.69-4.66-1.36-5-3.39-.61-2.4-3.74-3.83-5.25-1.75-1.86-4.36-4.6-6.44-3.12-1.78,1.27-3.7.82-5.54,2.33-3.68,3-6.9,4.61-10.43,4.61a4.48,4.48,0,0,0-3,.85c-1.51,1.36-3.47,1-5.2,1.5l-2.56.73c-1.06.31-1.68,2.49-3.19.92q-1.35-2.67-2.69-5.34a1.75,1.75,0,0,1-.25-.76c0-.77.85-1.21,1.58-1.47,1.09-.38,2.18-.79,3.25-1.22,1.58-.62,3.72-.55,4.71-1.94,2-2.78,4.46-1.87,6.7-2.8,1.77-.75,3.16-1,4.84-2.94,2.26-2.6,4-2.52,5.54-3.58,2.13-1.42,4.05-1.75,5.6-3.8-.16.21-1.13-2.15-2.33-1.38a1.77,1.77,0,0,1-2.59-1c.07-1,3.38-1.16,4.06-1.38A23.49,23.49,0,0,0,341.63,296.87Z" transform="translate(-277.07 -264.03)"/><path class="cls-3" d="M433.09,347.43c-1.93-2.05-3.91-4.1-5.91-6.17A10.87,10.87,0,0,0,430,336.8a.88.88,0,0,0-.53-1.05.48.48,0,0,0-.57-.47,11.48,11.48,0,0,0-5.17,2.4c-23.36-24.07-50-49.89-72.5-73.21-1.31-1.36-3.43.76-2.07,2.08,23.32,22.52,49.23,49,73.3,72.32a12.75,12.75,0,0,0-2.58,4.4c-.25.7.47,1.16,1.06,1.07a11.29,11.29,0,0,0,5.05-2.06l6.26,6C432.93,348.94,433.75,348.12,433.09,347.43Zm-6.45-9c-.55,1.18.06.68-.73,1.48l-1.08-1.13C425.73,338.08,426.24,338.15,426.64,338.47Zm-3.61,2.8c.41-.84,0-.62.59-1.27l1,1C423.91,341.5,423.34,341.64,423,341.27Z" transform="translate(-277.07 -264.03)"/><path class="cls-7" d="M356,276.84a5.38,5.38,0,0,0,3.07,1.5,2.41,2.41,0,0,0,2.56-1.85,1.54,1.54,0,0,0,2.23-.48,2.53,2.53,0,0,0-.12-2.48,7.34,7.34,0,0,0-1.76-1.89l-2.27-1.94c-2.6-2.21-4-1.17-5.61,1.11C351.7,274.17,353.17,274.39,356,276.84Z" transform="translate(-277.07 -264.03)"/><path class="cls-8" d="M333,303.81c-.31,1,0,1.4,1,1.86a8.51,8.51,0,0,0,1.55.31c2.19.58,3.45,1.76,3.65,4.06.13,1.45-.1,2.58.85,3.82s2.82,1.76,4.11,2.77c.26.2.74-.06.51-.39a8.05,8.05,0,0,0-2.61-1.95c-2.71-1.76-1.39-3.5-2.12-5.81a4.68,4.68,0,0,0-1.69-2.27c-.75-.56-4.53-1.51-4.45-2.3.05-.45-.64-.51-.76-.1Z" transform="translate(-277.07 -264.03)"/><path class="cls-8" d="M344.45,317.81c1.35,1.8-.72,3.65,1.37,5.24,1.09.83,2.22,1.14,3,2.38.71,1.09.86,2.4,1.43,3.55a.21.21,0,0,0,.39-.11,7.17,7.17,0,0,0-2.6-5.3c-.44-.32-.94-.53-1.4-.81-1.26-.79-1.14-1.85-1.25-3.15a3,3,0,0,0-.65-2c-.14-.17-.44.06-.31.24Z" transform="translate(-277.07 -264.03)"/><path class="cls-8" d="M331.24,305.65a3.69,3.69,0,0,1,1.06-.59.25.25,0,0,0-.06-.45,1.5,1.5,0,0,0-1.42.71c-.18.25.21.54.42.33Z" transform="translate(-277.07 -264.03)"/><path class="cls-8" d="M336.1,303.49a27.36,27.36,0,0,0,4.25-2.24,4.54,4.54,0,0,0,2.14-2.8c0-.16-.18-.33-.3-.18-.36.44-.57,1-.9,1.41a5.08,5.08,0,0,1-1.7,1.39,33.49,33.49,0,0,0-3.62,2.11c-.14.1-.06.38.13.31Z" transform="translate(-277.07 -264.03)"/><path class="cls-8" d="M339.19,304.87a4.36,4.36,0,0,0,3.07-1.12,7.48,7.48,0,0,0,2.23-3.24.16.16,0,0,0-.27-.16c-.71.78-1.06,1.83-1.78,2.63a4.26,4.26,0,0,1-3.25,1.57.16.16,0,0,0,0,.32Z" transform="translate(-277.07 -264.03)"/><path class="cls-8" d="M333.66,307.38a2.92,2.92,0,0,0,1.58,0,.2.2,0,0,0,0-.34,3.12,3.12,0,0,0-1.58-.25c-.39,0-.38.56,0,.59Z" transform="translate(-277.07 -264.03)"/><path class="cls-8" d="M352.08,297.73c-.46,1.55-.48,2.93,1.08,3.73a10.39,10.39,0,0,0,2.59.92,9.67,9.67,0,0,1,1.9.43,10.37,10.37,0,0,0,1.34.53c.32.09.56-.41.23-.56a11.9,11.9,0,0,0-3-1,7.31,7.31,0,0,1-2.5-.79c-1.36-.8-1.33-1.8-1.11-3.1.05-.32-.41-.46-.5-.14Z" transform="translate(-277.07 -264.03)"/><path class="cls-8" d="M359.7,300.73c1.3.77,5.1,2.63,6.26.82a.23.23,0,0,0-.26-.34,7.32,7.32,0,0,1-5.79-.86.22.22,0,0,0-.21.38Z" transform="translate(-277.07 -264.03)"/><path class="cls-8" d="M365.27,299l1.24.21c.34.06.47.1.73-.12a.23.23,0,0,0,0-.27c-.2-.27-.34-.27-.67-.31l-1.25-.12c-.35,0-.43.55-.09.61Z" transform="translate(-277.07 -264.03)"/><path class="cls-8" d="M360.49,291.49c.44,1.68,2.18,2.88,3.65,3.65.92.49,2.8,1.27,3.45,0,.08-.16,0-.44-.24-.41a4.45,4.45,0,0,1-3.18-.5c-1.19-.65-2.68-1.55-3.15-2.9a.28.28,0,0,0-.53.15Z" transform="translate(-277.07 -264.03)"/><path class="cls-8" d="M302.16,326c.26.59.54,1.17.81,1.74a4.5,4.5,0,0,0,.86,1.51c.17.14.49.06.47-.2a4.23,4.23,0,0,0-.66-1.55c-.31-.6-.62-1.21-1-1.8-.19-.34-.65,0-.51.3Z" transform="translate(-277.07 -264.03)"/><path class="cls-8" d="M315.89,320.37a2.54,2.54,0,0,0,.22,2.64c.4.52,1.55,1.38,2.15.71a.18.18,0,0,0,0-.24c-.32-.45-.94-.43-1.36-.78a2,2,0,0,1-.58-2.13c.08-.27-.35-.46-.46-.2Z" transform="translate(-277.07 -264.03)"/><path class="cls-8" d="M318,320.71a4.43,4.43,0,0,0,.8,1.44c.28.33.75.87,1.23.73a.25.25,0,0,0,.17-.3c-.09-.38-.55-.55-.81-.81a3.32,3.32,0,0,1-.8-1.22c-.14-.36-.71-.22-.59.16Z" transform="translate(-277.07 -264.03)"/><path class="cls-8" d="M331.15,312.3a3.68,3.68,0,0,0,.37,3.17c.41.56,1.49,1.57,2.24,1.34a.25.25,0,0,0,.17-.3c-.2-.64-1.08-.83-1.55-1.27a3.38,3.38,0,0,1-.72-2.87.26.26,0,0,0-.51-.07Z" transform="translate(-277.07 -264.03)"/><path class="cls-8" d="M354.76,326.66c3.46-2.31,7.09-1.41,10.92-1,1.78.2,3.51.17,4.92-1,.28-.24-.08-.69-.39-.51-2.78,1.64-5.76.52-8.77.41a10.94,10.94,0,0,0-6.87,1.78c-.19.14,0,.46.19.33Z" transform="translate(-277.07 -264.03)"/><path class="cls-8" d="M353.53,325.22a19.1,19.1,0,0,1,3.17-3,9.85,9.85,0,0,1,4.08-1.28c.27-.05.23-.43,0-.5-3-1-5.93,2.45-7.53,4.49-.15.2.1.47.28.28Z" transform="translate(-277.07 -264.03)"/><path class="cls-8" d="M352.53,321.75a25.66,25.66,0,0,1,2.35-2.06,9.43,9.43,0,0,0,2.07-1.63c.14-.2-.1-.43-.3-.38a6.1,6.1,0,0,0-2.25,1.47,26.14,26.14,0,0,0-2.33,2.14.33.33,0,0,0,.46.46Z" transform="translate(-277.07 -264.03)"/><path class="cls-8" d="M357,304.86a7.84,7.84,0,0,0,6.45.5c.41-.18.09-.7-.27-.65a12.08,12.08,0,0,1-6-.21c-.21-.08-.35.26-.15.36Z" transform="translate(-277.07 -264.03)"/><path class="cls-8" d="M361.85,288.27a15.66,15.66,0,0,0,2.55,1.12c.56.19,1.33.48,1.78-.08.7-.86-.37-2.54-1.33-2.65a.23.23,0,0,0-.23.29c.17.47,1.88,1.93.49,1.9a4.6,4.6,0,0,1-1.28-.43,16.14,16.14,0,0,1-1.65-.72c-.38-.19-.7.36-.33.57Z" transform="translate(-277.07 -264.03)"/><path class="cls-8" d="M321.18,318.83a2,2,0,0,0,1.4,2.32,4.79,4.79,0,0,0,4.08-.35.31.31,0,0,0-.23-.56,9.8,9.8,0,0,1-2.33.51c-.92,0-2.78-.44-2.44-1.79a.25.25,0,0,0-.48-.13Z" transform="translate(-277.07 -264.03)"/><path class="cls-8" d="M343.85,311.61c.53,1.57,2.07,3.68,3.72,4.2,1.42.45,3.94-.7,5-1.61.19-.15,0-.39-.22-.36-1.47.23-3.3,1.83-4.85,1.18s-2.38-2.39-3.25-3.59c-.14-.2-.51-.09-.42.18Z" transform="translate(-277.07 -264.03)"/><path class="cls-8" d="M348,314.34a17.38,17.38,0,0,1,2.15-1,4,4,0,0,0,1.6-.74.24.24,0,0,0-.1-.39,3.09,3.09,0,0,0-1.77.49,19.42,19.42,0,0,0-2.15,1.17.27.27,0,0,0,.27.46Z" transform="translate(-277.07 -264.03)"/><path class="cls-9" d="M345.51,383.52c-.16.92-1,1.55-1.72,2.15a16.58,16.58,0,0,0-4.25,5.24c-.55,1.09-.9,2.62.07,3.36a2,2,0,0,0,2.07.07,10.32,10.32,0,0,0,1.78-1.24c1.33-1,12.59-4.59,16.16-7.55.22-.18-6.42-9-9.92-11a3.13,3.13,0,0,0-1.42-.54,3.29,3.29,0,0,0-2.1,1.08c-1.17,1.05-2.42,2.33-2.33,4S345.79,381.83,345.51,383.52Z" transform="translate(-277.07 -264.03)"/><path class="cls-10" d="M326.44,363.62a7.94,7.94,0,0,0,2.79,3.28c4.29,3.47,11.93,14.24,12.75,14.3,1,.07,9.86-4.42,9.43-5.52-.32-.8-4-6.83-4.68-7.31-3.86-2.58-2.06-4.32-5-7.89,4.64.31,8.66-5,12.55-7.55,5.88-3.85,8.74-7.24,12.8-13a1,1,0,0,0,.22-.44c.06-.55-.68-.79-1.23-.81l-9.76-.49a17.66,17.66,0,0,0-4.82.2,16.68,16.68,0,0,0-5.86,3.15c-4.32,3.18-8.89,6.43-12.58,10.35C330.43,354.66,325,359.49,326.44,363.62Z" transform="translate(-277.07 -264.03)"/><path class="cls-3" d="M330.13,362.52a13.21,13.21,0,0,1,3.14-.13c.91.08,1.81.41,2.72.43a.22.22,0,0,0,.11-.4c-1.68-1-4.25-.66-6.07-.28-.26.05-.15.42.1.38Z" transform="translate(-277.07 -264.03)"/><path class="cls-3" d="M334.66,368.82c2.13,1.05,2.93,3.22,4.09,5.13.72,1.16,1.67,2.54,3.18,2.5a.35.35,0,0,0,.09-.68c-2.21-.55-3-3.06-4.2-4.76a6.85,6.85,0,0,0-3-2.54c-.19-.08-.33.25-.14.35Z" transform="translate(-277.07 -264.03)"/><path class="cls-3" d="M341.78,372.83c.38.37,1.11,1.17,1.69,1a.27.27,0,0,0,.19-.33c-.08-.28-.26-.36-.5-.51a5.57,5.57,0,0,1-.85-.67c-.35-.33-.87.19-.53.53Z" transform="translate(-277.07 -264.03)"/><path class="cls-3" d="M342.78,378.57l1.78-1a6.58,6.58,0,0,0,1.55-.95.19.19,0,0,0-.18-.31,6.37,6.37,0,0,0-1.62.83l-1.77,1a.24.24,0,0,0,.24.41Z" transform="translate(-277.07 -264.03)"/><path class="cls-3" d="M332.52,358.8c.58.27,1.18.48,1.75.79a6.17,6.17,0,0,0,1.55.88.27.27,0,0,0,.31-.39c-.27-.56-1.07-.89-1.6-1.15a6.19,6.19,0,0,0-1.88-.61c-.25,0-.35.37-.13.48Z" transform="translate(-277.07 -264.03)"/><path class="cls-2" d="M341.56,392.28a6.91,6.91,0,0,1,1.33-.8c.35-.16,1-.2,1.16-.58a.19.19,0,0,0-.06-.25c-.37-.27-1,.11-1.33.28a6,6,0,0,0-1.42.94c-.21.19.08.58.32.41Z" transform="translate(-277.07 -264.03)"/><path class="cls-2" d="M345.83,390.26a1.34,1.34,0,0,0,.82-.45c.08-.1,0-.25-.11-.28a1.29,1.29,0,0,0-.88.12c-.38.14-.22.73.17.61Z" transform="translate(-277.07 -264.03)"/><path class="cls-2" d="M349.06,389a.75.75,0,0,0,.51-.36c.12-.15,0-.37-.17-.42a.63.63,0,0,0-.55,0,.39.39,0,0,0,.21.75Z" transform="translate(-277.07 -264.03)"/><path class="cls-10" d="M399.08,369.14a13.78,13.78,0,0,1-3.48,2.26L289,421.09s-7.81,4.21-11.23,0,7.46-1.33,13.44-4.44c5.54-2.87,91.63-41.52,104.26-47.19a8.09,8.09,0,0,0,3.42-2.78,3.17,3.17,0,0,0,.59-1.24C399.63,364.28,402.91,365.66,399.08,369.14Z" transform="translate(-277.07 -264.03)"/><path class="cls-3" d="M373.87,339.48c-2.22,3.49-4.06,4.15-6.78,5.09-2.9,1-7.64,1.13-10.54,2.12-1.29.45-6,.35-6.7,1.52-1,1.53,1.16,3,1.78,4.72.86,2.38,2.39,2.89,4.06,4.79,1.39,1.58,2.6,4.61,4.2,6s3,3.18,3.11,5.28a2.21,2.21,0,0,1-.31,1.36,2.83,2.83,0,0,1-.92.72,57.47,57.47,0,0,1-12,5.15c-.54.16-12.87-19.25-13.32-20.87-.93-3.3-1.58-3.72-2.72-7-1-2.95-2.29-6.47,0-8.6a22.94,22.94,0,0,1,5.36-3.46c3.89-1.26,5.86-3.63,9.77-4.81a33.45,33.45,0,0,1,9.39-1.86c4.64,0,6.9-.47,11.47,0,1.94.2,5.19,2.54,5.19,2.54C374.73,334.06,374.78,338,373.87,339.48Z" transform="translate(-277.07 -264.03)"/><path class="cls-2" d="M348.62,378.35a6.3,6.3,0,0,0-4.05,6.43c.08.79.48,1.7,1.26,1.79a2,2,0,0,0,.9-.16,77.06,77.06,0,0,0,8.89-3.75,137.11,137.11,0,0,0,13.06-7.7,1,1,0,0,0,.37-.35c.26-.55-.57-.93-1.16-1.09-2.36-.62-4.05-3.08-6.49-3.21a7.22,7.22,0,0,0-3.27.89c-1.84.82-4.88,1.73-6.09,3.43C350.68,376.54,351.28,377.41,348.62,378.35Z" transform="translate(-277.07 -264.03)"/><path class="cls-10" d="M342.12,340c1.72.66,3.15,1.36,4.06,3,.75,1.36,1.28,2.84,2,4.21.16.3.58,0,.45-.27a23.87,23.87,0,0,0-2.59-5,7.74,7.74,0,0,0-3.86-2.28c-.16-.06-.23.2-.07.26Z" transform="translate(-277.07 -264.03)"/><path class="cls-10" d="M347.38,339.89a12.79,12.79,0,0,1,.91,2.72,21.3,21.3,0,0,0,.38,2.54.33.33,0,0,0,.64,0c.45-1.75-.6-4-1.39-5.57-.19-.37-.71-.05-.54.31Z" transform="translate(-277.07 -264.03)"/><path class="cls-10" d="M352.33,344.53a7.59,7.59,0,0,0,.2-1.57.27.27,0,0,0-.53-.07,7.34,7.34,0,0,0-.28,1.47c-.06.4.55.58.61.17Z" transform="translate(-277.07 -264.03)"/><path class="cls-10" d="M357,342.75a5.88,5.88,0,0,0,3.16-.6c1.58-.67,3.22-1.16,4.8-1.81s3.28-1.73,3.39-3.56a.21.21,0,0,0-.39-.1c-1.22,2.23-2.79,2.89-5.12,3.7-1.94.68-3.73,1.91-5.84,1.93a.22.22,0,0,0,0,.44Z" transform="translate(-277.07 -264.03)"/><path class="cls-10" d="M363.89,337.53c.49-.32,1-.66,1.43-1a4.78,4.78,0,0,0,1.15-1,.27.27,0,0,0-.36-.36,6.33,6.33,0,0,0-1.15.93c-.43.35-.89.68-1.35,1-.3.2,0,.69.28.49Z" transform="translate(-277.07 -264.03)"/><path class="cls-10" d="M352,370.9c.41-1.16,1.94-1.89,3-2.34s2-.49,3-.83a.27.27,0,0,0-.07-.53c-1.95-.27-6,1.45-6.29,3.65,0,.25.34.26.41,0Z" transform="translate(-277.07 -264.03)"/><path class="cls-10" d="M355,365.5c.84-.65,1.8-1.54,1.49-2.72a1.81,1.81,0,0,0-.74-1,7.09,7.09,0,0,1-1.8-1.74c-.2-.28-.76-.12-.61.26a3.51,3.51,0,0,0,1.29,1.61c.52.37,1.18.6,1.33,1.34s-.78,1.48-1.28,1.91c-.23.2.1.5.32.32Z" transform="translate(-277.07 -264.03)"/><path class="cls-10" d="M343.29,346c3.39,1.71,5,6.06,5.77,9.52.1.44.75.25.67-.19-.65-3.53-2.8-8.11-6.21-9.74-.27-.13-.51.27-.23.41Z" transform="translate(-277.07 -264.03)"/><path class="cls-10" d="M349.78,358.14c0,.43-.11.85.21,1.18a.27.27,0,0,0,.39,0c.32-.33.22-.75.21-1.18a.41.41,0,0,0-.81,0Z" transform="translate(-277.07 -264.03)"/><path class="cls-10" d="M349,370.9a1.33,1.33,0,0,1,.54-1.22c.36-.27.72-.21,1.11-.34.13,0,.22-.23.09-.33-.49-.38-1.19-.06-1.6.31a1.79,1.79,0,0,0-.59,1.7c.06.3.49.17.45-.12Z" transform="translate(-277.07 -264.03)"/><path class="cls-10" d="M347.93,367.35c.16-.18.38-.27.56-.44a.22.22,0,0,0-.1-.36.9.9,0,0,0-.88.39c-.24.28.16.69.42.41Z" transform="translate(-277.07 -264.03)"/><path class="cls-9" d="M347.06,383c3.44-1.93,6.86-4,10.73-4.94,2.55-.62,5.31-.72,6.82-3.16.31-.49-.46-.92-.78-.45-1.91,2.79-6.6,2.62-9.52,3.86a49.1,49.1,0,0,0-7.46,4.33.21.21,0,0,0,.21.36Z" transform="translate(-277.07 -264.03)"/><path class="cls-9" d="M358.33,376.61a7.62,7.62,0,0,0,3.83-1.4,1.41,1.41,0,0,0,.06-2.33c-.5-.29-.89.43-.45.76,1.19.86-3,2.31-3.51,2.42-.31.06-.25.59.07.55Z" transform="translate(-277.07 -264.03)"/><path class="cls-9" d="M359.81,374.3a2.09,2.09,0,0,0,.52-.59.32.32,0,0,0-.44-.43,2,2,0,0,0-.58.52.35.35,0,0,0,.5.5Z" transform="translate(-277.07 -264.03)"/><path class="cls-9" d="M350.55,378.7c.6,0,1.2,0,1.8-.05a.41.41,0,0,0,.36-.2.36.36,0,0,0,0-.42.42.42,0,0,0-.36-.21c-.6,0-1.2.11-1.8.17-.44.05-.46.72,0,.71Z" transform="translate(-277.07 -264.03)"/><path class="cls-3" d="M408.86,358.17a14.47,14.47,0,0,1-3.6,2.34L295,411.89s-8.08,4.35-11.61,0,7.7-1.38,13.89-4.59c5.73-3,94.75-42.93,107.82-48.8a8.49,8.49,0,0,0,3.54-2.87,3.41,3.41,0,0,0,.6-1.28C409.43,353.14,412.82,354.57,408.86,358.17Z" transform="translate(-277.07 -264.03)"/></svg>