<svg id="Режим_изоляции" data-name="Режим изоляции" xmlns="http://www.w3.org/2000/svg" viewBox="0 0 158.57 114.7"><defs><style>.cls-1{fill:#135353;}.cls-2{fill:#a8cb17;}.cls-3{fill:#a0b718;}.cls-4{fill:#f1d291;}.cls-5{fill:#ff690f;}.cls-6{fill:#214044;}.cls-7{fill:#3393a0;}.cls-8{fill:#b58c43;}.cls-9{fill:#fefff1;}.cls-10{fill:#e84d00;}.cls-11{fill:#0a84b7;}.cls-12{fill:#0b769b;}</style></defs><path class="cls-1" d="M202.32,126.77c.19.68,2.21,2,2.89,2.2s1.92.48,2.56,0c1.35-1-2.74-2.74-1.47-3.89a3.48,3.48,0,0,1,3.78-.4c1.24.58,2.24,1.56,3.43,2.22s2.57.93,3.43.36c.36-.45,0-1.05-.27-1.57s.61-.68.6-1.29-.32-1-1.14-1.68a2.07,2.07,0,0,0,.05-1.62c-.14-.46-1.58-1-1.38-1.44.49-1.12-2.14-2-4.06-2.42-3-.7-6.28,0-9.1-1.19a10.09,10.09,0,0,0-1.87-.77,1.76,1.76,0,0,0-1.83.54,2,2,0,0,0,.4,2.29C200.72,120.89,201.31,123.13,202.32,126.77Z" transform="translate(-72.27 -79.47)"/><path class="cls-1" d="M83.92,106a13.94,13.94,0,0,1-1.93.35c-2.48.47-2.59-.44-2.57-1.1s1.78-1.21,2.15-1.66.62-1.15.22-1.57c-3.08-.91-6.42.22-8.22-.4-2.38-.91-1-2.67.16-2.74A2.44,2.44,0,0,1,74,97.13a2.74,2.74,0,0,1,2.34-.9,1.5,1.5,0,0,1,1.11-1.57c1-.27,1.87.15,2-.09.54-.77,2.94-.51,4.88.27L92.22,98a5.5,5.5,0,0,1,2.16,1.48C98,103.74,86.19,105.21,83.92,106Z" transform="translate(-72.27 -79.47)"/><path class="cls-2" d="M114,97.26a42.13,42.13,0,0,0-5.38.19,46.7,46.7,0,0,1-12.91-1c-2.25-.5-4.89-1.08-6.62.45-1.29,1.15-1.52,3.08-1.54,4.81a5.7,5.7,0,0,0,.68,3.32c1.24,1.82,3.86,1.76,6,2.07,3.68.51,7,2.58,10.68,3.12,2.1.31,4.25.1,6.37.25,3.87.27,7.55,1.73,11.15,3.17a37.23,37.23,0,0,0,1.71,10.32c.77,2.54,3.13,3,4.24,5.46,1.5,3.31-.08,7.93,1.62,11.11.25.46,2.43,1.58,2.85,1.88a3.44,3.44,0,0,0,2,.45l23.41.34c1.75,0,10.18-2.25,11.51-3.39,2.36-2-2.38-5.63-3.71-8.45-2.37-5-5.57-6.56-6.28-12-.11-.84.14-3.91,1.43-4,5.31-.53,10.6-.55,15.64,1.18,2.29.79,4.7.08,6.85,1.19A76.88,76.88,0,0,0,200.56,124a18.94,18.94,0,0,0,1-7.43,3.85,3.85,0,0,0-.6-2.08,4.42,4.42,0,0,0-1.56-1.12q-8.67-4.41-17.52-8.47a23.77,23.77,0,0,0-5.52-2c-3.18-.57-6.51.17-9.66-.54-1.87-.42-3.59-1.34-5.43-1.87-2.69-.78-4.22-1.44-6.92-.24-1.39-.92,2.9-5,0-5.44-.63-.11-4.23-1.18-4.85-1.32-5.57-1.25-7,.48-10.8,0-2.38-.3-7.41-1.06-9.31,1.18-.75.89.64,4.44-.08,5-1,.83-4.13.08-5.25-.13C120.65,99,117.44,97.5,114,97.26Z" transform="translate(-72.27 -79.47)"/><path class="cls-3" d="M150.24,98.45a3.49,3.49,0,0,0-1.73-.19c-4.31.25-9-1.72-13.32-1.49s-2.6,4.24-2,7.73a1.58,1.58,0,0,0,.27.74,1.72,1.72,0,0,0,.91.43,6.06,6.06,0,0,1,3.27,2.3,3.89,3.89,0,0,0,.89,1,2.88,2.88,0,0,0,1.39.33l4.6.28a4.9,4.9,0,0,0,1.62-.07,5.18,5.18,0,0,0,1.49-.82l1.84-1.31a2.61,2.61,0,0,0,.76-.72,3.83,3.83,0,0,0,.16-1.91,16.25,16.25,0,0,1,.81-3.32C151.46,100.36,151.26,99,150.24,98.45Z" transform="translate(-72.27 -79.47)"/><path class="cls-3" d="M131.61,107.55c1.48,1.23,2.09,2.72,3.08,4.29.58.91,1.63,2,2.78,1.49a.52.52,0,0,0,.1-.8c-.48-.38-1.06-.47-1.5-.92a10.24,10.24,0,0,1-1.24-1.93,9.45,9.45,0,0,0-2.72-2.77c-.38-.27-.86.34-.5.64Z" transform="translate(-72.27 -79.47)"/><path class="cls-3" d="M140.89,108.58c.34,3-1.87,5.36-2.11,8.29-.21,2.49,1.05,4.83.84,7.28-.12,1.39-1.06,2-.76,3.51.22,1.11,1.15,1.79,1.77,2.63a19.81,19.81,0,0,1,3.43,6.62.5.5,0,0,0,1-.26,24.08,24.08,0,0,0-2.66-5.81c-1.74-3.09-1.78-5.16-1.4-8.48.06-.48-.38-1-.4-1.43-.45-11.89.23-4,.76-8.07.25-2,.56-2,.15-4.36-.06-.33-.62-.26-.58.08Z" transform="translate(-72.27 -79.47)"/><path class="cls-3" d="M154.78,101.41c-.58,2.79-.59,6.07,1.85,8,.46.37,1.11-.25.66-.65-2.12-1.9-2.33-4.52-1.92-7.19.06-.38-.5-.55-.59-.16Z" transform="translate(-72.27 -79.47)"/><path class="cls-3" d="M158.19,111a5.15,5.15,0,0,0,.76.86.46.46,0,0,0,.71-.55,4,4,0,0,0-.53-.86c-.42-.55-1.35,0-.94.55Z" transform="translate(-72.27 -79.47)"/><path class="cls-3" d="M124,110.41a24,24,0,0,1-.28-3.91c-.12-1.14.17-2.26.05-3.38a.37.37,0,0,0-.63-.26c-.88.83-.72,2.24-.6,3.36a22.07,22.07,0,0,0,.44,4.47.53.53,0,0,0,1-.28Z" transform="translate(-72.27 -79.47)"/><path class="cls-3" d="M198.54,121.52a2.09,2.09,0,0,0,1-2,9.78,9.78,0,0,0-.5-1.37c-.18-.61,0-1.25-.23-1.83-.09-.23-.46-.36-.59-.08a2.87,2.87,0,0,0,0,2c.27,1,1.12,1.89,0,2.7-.35.26,0,.85.35.6Z" transform="translate(-72.27 -79.47)"/><path class="cls-3" d="M91.48,98c-1.12.19-1.23,1.56-1.24,2.48s.16,2.43,1.23,2.73a.26.26,0,0,0,.29-.37c-.29-.66-.76-1.1-.75-1.88,0-.37.24-1.88.73-2a.49.49,0,0,0-.26-.94Z" transform="translate(-72.27 -79.47)"/><path class="cls-3" d="M123.65,117.63a48,48,0,0,0,5.12,8.21c1.7,2.11,3.75,1.45,6.18,2a.29.29,0,0,0,.28-.48,2,2,0,0,0-1.57-.73c-.52-.06-1,0-1.56,0-1.51-.06-2.23-.77-3.12-1.94a77.28,77.28,0,0,1-4.82-7.34.3.3,0,0,0-.51.3Z" transform="translate(-72.27 -79.47)"/><path class="cls-3" d="M145.45,126.18a33.43,33.43,0,0,0,4.31-3c1.19-1,2.68-2.09,3.29-3.53.14-.35-.32-.62-.6-.46-1.26.71-2.2,2.07-3.28,3a32.3,32.3,0,0,1-4.22,3.14c-.54.34,0,1.19.5.86Z" transform="translate(-72.27 -79.47)"/><path class="cls-3" d="M175.9,110.08a9.59,9.59,0,0,0,.88,2.12c.28.48.72,1.38,1.33,1.47a.28.28,0,0,0,.34-.26c0-.6-.63-1-.95-1.51a8.16,8.16,0,0,1-.95-2,.34.34,0,0,0-.65.18Z" transform="translate(-72.27 -79.47)"/><path class="cls-3" d="M178.11,110a12.06,12.06,0,0,0,.71,1.84c.25.53.54,1.24,1.1,1.5.3.13.74,0,.71-.41a3.57,3.57,0,0,0-.71-1.48,10.81,10.81,0,0,1-.79-1.73c-.23-.64-1.22-.38-1,.28Z" transform="translate(-72.27 -79.47)"/><path class="cls-3" d="M106.81,102a6.27,6.27,0,0,0,.52,3.11c.37.77,1,1.82,1.94,1.86a.25.25,0,0,0,.24-.31c-.21-.73-1-1.23-1.34-1.87a5.44,5.44,0,0,1-.86-2.79.25.25,0,0,0-.5,0Z" transform="translate(-72.27 -79.47)"/><path class="cls-3" d="M109.43,103.9c.11.83.87,2.75,2,2.48a.45.45,0,0,0,.3-.53c-.07-.44-.53-.64-.81-.94a2.93,2.93,0,0,1-.63-1.24c-.14-.57-.92-.31-.84.23Z" transform="translate(-72.27 -79.47)"/><path class="cls-4" d="M140.81,106a4.8,4.8,0,0,0,3.11.73,6.26,6.26,0,0,0,4.31-3A23.77,23.77,0,0,0,153,89.94a10.62,10.62,0,0,0-.63-4,7.19,7.19,0,0,0-4.44-4.17c-5.72-2.13-13.86.31-14.58,7.1C132.61,95.3,135.15,102.42,140.81,106Z" transform="translate(-72.27 -79.47)"/><path class="cls-5" d="M153.43,90.79c.48-6.32-1-8.63-5.06-10.43a13.83,13.83,0,0,0-5.79-.89c-3.27,0-6.06.58-8.25,3a10.4,10.4,0,0,0-2.26,7.31s4.28-.26,5.45-.12C139.1,89.84,153.34,90.3,153.43,90.79Z" transform="translate(-72.27 -79.47)"/><path class="cls-5" d="M135.15,96.32a1.15,1.15,0,0,1,0,.45.69.69,0,0,1-.64.51,1.39,1.39,0,0,1-.82-.29,4.37,4.37,0,0,1-1.36-2.94,29.64,29.64,0,0,1-.38-3.88,4.8,4.8,0,0,1,.43-2.63c.44-.77,1.75-1.5,2.53-.73s.3,2.21.17,3A17,17,0,0,0,135.15,96.32Z" transform="translate(-72.27 -79.47)"/><path class="cls-6" d="M135,89.51h-3a3.89,3.89,0,0,0,.1,3.3s1.35.67,2.88,1.33C135,94.14,134.14,90.88,135,89.51Z" transform="translate(-72.27 -79.47)"/><path class="cls-6" d="M136.71,96.75c2,.92,3.59.61,5.57-.32,1.25-.59,2-1.82,3.11-1.07a13.56,13.56,0,0,1,1.67,1.23,3.92,3.92,0,0,0,5.59-.18c1.29-1.54,1-3.63.78-5.62C151,89.69,139.36,89,135,89.51,134.07,92.13,134.43,95.7,136.71,96.75Z" transform="translate(-72.27 -79.47)"/><path class="cls-7" d="M149.76,98.22A4.21,4.21,0,0,1,146.67,97a12.82,12.82,0,0,0-1.57-1.14c-.44-.29-.68-.18-1.46.39a7.08,7.08,0,0,1-1.13.71c-2,.94-3.8,1.35-6,.32h0c-2.55-1.18-3-4.94-2.05-7.9l.11-.32.34,0c4.36-.54,16.12.15,18.76,1.32l.28.13L154,91c.21,1.93.45,4.11-.93,5.76a4.24,4.24,0,0,1-3.15,1.46Zm-5.07-3.63a1.83,1.83,0,0,1,1,.32,14.36,14.36,0,0,1,1.76,1.31,3.25,3.25,0,0,0,2.42.92,3.17,3.17,0,0,0,2.36-1.07c1.08-1.28.9-3,.7-4.9-2.75-.94-13-1.63-17.57-1.16-.69,2.41-.25,5.41,1.58,6.25s3.33.51,5.11-.32a5.45,5.45,0,0,0,.95-.6A3,3,0,0,1,144.69,94.59Z" transform="translate(-72.27 -79.47)"/><path class="cls-8" d="M144.48,95.93c.1.53,1.11,2.26.38,2.56-.3.12-.64-.22-1-.13a.55.55,0,0,0-.41.54.54.54,0,0,0,.27.48,1.5,1.5,0,0,0,2.16-.57c.39-1.09-.38-2.1-.76-3.07a.36.36,0,0,0-.69.19Z" transform="translate(-72.27 -79.47)"/><path class="cls-9" d="M145.71,100.85a34.35,34.35,0,0,1-5.35-.59c0,.53.33,2.87,2.41,3A2.59,2.59,0,0,0,145.71,100.85Z" transform="translate(-72.27 -79.47)"/><path class="cls-9" d="M137.94,91.78l1.29,1.73c.34.45.66,1.09,1.17,1.35a.17.17,0,0,0,.25-.19,4.19,4.19,0,0,0-1-1.46l-1.36-1.68c-.15-.17-.46.06-.32.25Z" transform="translate(-72.27 -79.47)"/><path class="cls-9" d="M139.84,91.49l1,1.46a3.25,3.25,0,0,0,.91,1.13.2.2,0,0,0,.29-.22,3.42,3.42,0,0,0-.8-1.27l-1-1.33c-.18-.24-.59,0-.41.23Z" transform="translate(-72.27 -79.47)"/><path class="cls-9" d="M142.21,91.5a10.8,10.8,0,0,0,1,1.06c.13.11.34,0,.24-.18a9.3,9.3,0,0,0-1-1.12c-.15-.16-.38.08-.24.24Z" transform="translate(-72.27 -79.47)"/><path class="cls-9" d="M145.84,81.76a2.93,2.93,0,0,1,1.6.49c.39.27.67.81,1.08,1a.16.16,0,0,0,.23-.14c0-.54-.64-1-1.05-1.31a3.49,3.49,0,0,0-1.86-.53c-.31,0-.31.48,0,.49Z" transform="translate(-72.27 -79.47)"/><path class="cls-9" d="M149.56,84.34a3,3,0,0,0,.78,1.13c.15.1.29-.07.27-.21a3.14,3.14,0,0,0-.65-1.15.23.23,0,0,0-.4.23Z" transform="translate(-72.27 -79.47)"/><path class="cls-9" d="M151.25,87l-.06,0a.17.17,0,0,0-.17,0L151,87a.28.28,0,1,0,.29,0Z" transform="translate(-72.27 -79.47)"/><path class="cls-1" d="M106.5,175.79a5.79,5.79,0,0,0-.4,2.42,4.1,4.1,0,0,0,.37,2.2c.78,1.3,2.61,1.32,4.12,1.19L128,180.05c1.74-.15,3.75-.47,4.65-2s.09-3.66-1.14-5-2.85-2.41-3.82-4a4.45,4.45,0,0,0-1-1.31c-3.43-2.52-7.58-1.08-10,1.44C114.09,171.91,108.09,172.46,106.5,175.79Z" transform="translate(-72.27 -79.47)"/><path class="cls-10" d="M116,129.71c-1.22-.65-5.33-.28-5.91.31-2.77,2.77-5.39,6.27-5.06,10.16.26,3.15,2.38,5.79,3.49,8.73,2.26,6,.31,13.05,3.08,18.81a4,4,0,0,0,1.36,1.73c.67.42.85,1.62,1.56,1.28,5-2.37,9.34,1.05,13.13-.61.55-.24,1.23-.05,1.77-.33,1.14-.59,1.48-2.09,1.39-3.38-.45-6.34-6.88-11.74-6.58-18.09,4,.76,6.93,2.89,10.56,4.62,1.49.72,2.95,1.51,4.44,2.21a41.77,41.77,0,0,0,14.2,3.78c3,.25,15.58.71,20-4.81,5.51-6.87-2.14-14.44-9-17.83-.77-.38-20.07,4.23-26.85.63S122.87,133.28,116,129.71Z" transform="translate(-72.27 -79.47)"/><path class="cls-5" d="M146.65,131.86c-.44,3.15,1.1,6.21,2.47,9.08a79.51,79.51,0,0,1,4.8,12.44c1.51,5.28,2.51,11.07,6.37,15l8-2.4c2.87-.86,6.15-2.11,7-5,.91-3-1.41-6-3-8.72a39,39,0,0,1-2.45-5.9l-2.72-7.71c-1.07-3-2.18-6.17-4.21-8.69C159.15,125.17,147.82,123.62,146.65,131.86Z" transform="translate(-72.27 -79.47)"/><path class="cls-1" d="M164.51,158.35c1.83-.59,3.79-1.18,5.64-.66a4.62,4.62,0,0,1,3.27,5c-.4,2.3-2.59,3.79-4.59,5a25.11,25.11,0,0,1-5.9,2.91c-3.76,1.08-11.22,2-9.77-4C154.37,161.57,160.27,159.72,164.51,158.35Z" transform="translate(-72.27 -79.47)"/><path class="cls-5" d="M118.58,136.13a9,9,0,0,1,2.2,3.37c.4,1,.57,2.08,1,3a.3.3,0,0,0,.55-.15,10.61,10.61,0,0,0-3.4-6.65c-.26-.22-.65.15-.39.39Z" transform="translate(-72.27 -79.47)"/><path class="cls-5" d="M124.79,137.14a17.7,17.7,0,0,1,1,2.55,8.49,8.49,0,0,0,.69,2.12c.09.15.39.16.42-.06a5.2,5.2,0,0,0-.52-2.4,18.83,18.83,0,0,0-1.1-2.52c-.18-.36-.71,0-.53.31Z" transform="translate(-72.27 -79.47)"/><path class="cls-5" d="M133.42,137.91c2.92,1.6,4.42,4,5.77,7,.85,1.83,1.65,3.9,3.3,5.14.19.15.45-.14.32-.33-1.5-2.32-2.7-4.62-4-7a12,12,0,0,0-5.12-5.12c-.27-.14-.5.25-.24.4Z" transform="translate(-72.27 -79.47)"/><path class="cls-5" d="M144.32,144.21a28,28,0,0,0,2.87,6.3c.91,1.69,1.71,3.36,3.28,4.53.44.32.86-.42.43-.74-1.63-1.22-2.45-3.19-3.41-4.93a34.16,34.16,0,0,1-2.67-5.3.26.26,0,0,0-.5.14Z" transform="translate(-72.27 -79.47)"/><path class="cls-5" d="M123.88,146.42a2.49,2.49,0,0,0-.68-1.78.23.23,0,0,0-.37.22c.1.54.41,1,.47,1.56,0,.36.61.37.58,0Z" transform="translate(-72.27 -79.47)"/><path class="cls-10" d="M149.66,135.11a63.45,63.45,0,0,0,3.76,9.67c1,2.05,2,4.53,4.39,5.19a.29.29,0,0,0,.22-.52c-2.46-1.41-3.47-3.9-4.61-6.37-1.22-2.65-2.29-5.37-3.32-8.09-.1-.27-.52-.17-.44.12Z" transform="translate(-72.27 -79.47)"/><path class="cls-10" d="M164.47,154.28c.53-.47,2.25-.23,2.88-.23a11.78,11.78,0,0,0,2.45-.05.3.3,0,0,0,0-.57,12.67,12.67,0,0,0-3.74,0c-.7.05-1.52,0-2,.57-.17.24.19.47.38.3Z" transform="translate(-72.27 -79.47)"/><path class="cls-10" d="M166.35,149.54l1.32.1c.38,0,.64.1.91-.2a.3.3,0,0,0,0-.35c-.23-.35-.47-.32-.86-.35l-1.42-.1c-.58,0-.57.86,0,.9Z" transform="translate(-72.27 -79.47)"/><path class="cls-10" d="M164.09,144.38l1.64.47c.43.12.89.39,1.29.1a.29.29,0,0,0,.1-.38c-.21-.45-.73-.44-1.16-.55l-1.66-.4a.39.39,0,0,0-.21.76Z" transform="translate(-72.27 -79.47)"/><path class="cls-5" d="M114,168.6c1.65-1.46,3.76-.49,5.59-.16a.21.21,0,0,0,.16-.38c-1.53-1.14-4.6-1.07-5.94.35a.13.13,0,0,0,.19.19Z" transform="translate(-72.27 -79.47)"/><path class="cls-5" d="M110,146.73a7.7,7.7,0,0,1,2,3.14c.32,1.28,0,2.68.39,3.9a.22.22,0,0,0,.42,0c.8-2-.12-6.69-2.62-7.3a.16.16,0,0,0-.15.26Z" transform="translate(-72.27 -79.47)"/><path class="cls-5" d="M113.59,159a3.44,3.44,0,0,0,.58,1.31c.17.22.47,0,.49-.2a3.4,3.4,0,0,0-.27-1.33c-.15-.52-1-.29-.8.22Z" transform="translate(-72.27 -79.47)"/><path class="cls-11" d="M85.29,186.87c-1.09-.63,101.25-28.64,117.07-37s23.59-.2,26.46,3.28,4,10.4-6,15.71-112.75,25-112.75,25S101.69,196.31,85.29,186.87Z" transform="translate(-72.27 -79.47)"/><path class="cls-12" d="M214.33,149.69c1.76,1.61,3.48,3.27,5.13,5s3.07,3.72,4.83,5.27a.22.22,0,0,0,.35-.27,30.52,30.52,0,0,0-4.46-5.19c-1.75-1.81-3.58-3.52-5.48-5.17-.26-.21-.62.15-.37.37Z" transform="translate(-72.27 -79.47)"/><path class="cls-12" d="M212.29,153.64c3.35,3.27,6.22,6.89,9.35,10.34.29.31.85-.11.6-.46a63.25,63.25,0,0,0-9.6-10.23.25.25,0,0,0-.35.35Z" transform="translate(-72.27 -79.47)"/><path class="cls-12" d="M212.82,162.28c.75.67,1.46,1.37,2.14,2.11s1.14,1.71,1.91,2.05a.34.34,0,0,0,.49-.38c-.14-.83-1.11-1.6-1.68-2.19a29.45,29.45,0,0,0-2.35-2.11c-.35-.28-.86.2-.51.52Z" transform="translate(-72.27 -79.47)"/><path class="cls-12" d="M210.35,165l1.51,1.36c.39.35.82,1,1.39,1,.16,0,.36-.15.34-.34-.08-.59-.67-.88-1.11-1.23l-1.59-1.28c-.38-.3-.91.21-.54.54Z" transform="translate(-72.27 -79.47)"/><path class="cls-12" d="M97.69,187.91c1.26.65,2.53,1.28,3.81,1.88a14.67,14.67,0,0,0,3.52,1.42.22.22,0,0,0,.17-.4,21.5,21.5,0,0,0-3.61-1.67c-1.22-.54-2.42-1.11-3.61-1.7-.32-.15-.6.31-.28.47Z" transform="translate(-72.27 -79.47)"/><path class="cls-12" d="M106.5,188.88a7.74,7.74,0,0,0,1.64,1,2.38,2.38,0,0,0,1.63.33.32.32,0,0,0,.14-.53,4.11,4.11,0,0,0-1.42-.61,7.72,7.72,0,0,1-1.56-.88c-.45-.33-.86.41-.43.73Z" transform="translate(-72.27 -79.47)"/><path class="cls-12" d="M110.91,188.42l1.17.48a3.2,3.2,0,0,0,1.09.33.39.39,0,0,0,.27-.66,2.91,2.91,0,0,0-1-.5l-1.27-.48c-.53-.2-.74.63-.23.83Z" transform="translate(-72.27 -79.47)"/></svg>